# xmcd CD database file
#
# Track frame offsets:
#	150
#	10857
#	29020
#	42272
#	60822
#	79605
#	91455
#	105492
#	116755
#	136802
#	155990
#	172510
#
# Disc length: 2597 seconds
#
# Revision: 0
# Processed by: cddbd v1.5.2PL0 Copyright (c) Steve Scherf et al.
# Submitted via: CDex 1.51
#
DISCID=8a0a230c
DTITLE=Tom T. Hall - sings Miss Dixie and Tom T. 
DYEAR=2007
DGENRE=Country
TTITLE0=I'm A Coal Mining Man
TTITLE1=Â Hero In Harlan
TTITLE2=One More Last Chance
TTITLE3=Somewhere In Kentucky Tonight
TTITLE4=A Headstone For Harry
TTITLE5=Leaving Baker County
TTITLE6=One Of Those Days
TTITLE7=I'm Gonna Make Up A Song About You
TTITLE8=Pretty Green Hills
TTITLE9=Once Upon A Road
TTITLE10=Our Little World
TTITLE11=Jimmy Martin's Life Story
EXTD=YEAR: 2007
EXTT0=
EXTT1=
EXTT2=
EXTT3=
EXTT4=
EXTT5=
EXTT6=
EXTT7=
EXTT8=
EXTT9=
EXTT10=
EXTT11=
PLAYORDER=
